<?xml version="1.0" encoding="utf-8"?>
<!DOCTYPE svg PUBLIC "-//W3C//DTD SVG 1.1//EN" "http://www.w3.org/Graphics/SVG/1.1/DTD/svg11.dtd">
<svg version="1.1" xmlns="http://www.w3.org/2000/svg" xmlns:xlink="http://www.w3.org/1999/xlink" x="0px" y="0px" viewBox="0 0 256 256" enable-background="new 0 0 256 256" xml:space="preserve">
<g><g><path fill="#000000" d="M128,10C62.9,10,10,62.9,10,128v0l0,0c0,0,0,0,0,0v0l0,0v0v0v0v0l0,0v0l0,0v0l0,0l0,0v0l0,0l0,0l0,0.3h0l0,0.1h0l0,0.1c0,0,0,0,0,0h0l0,0c0,0,0,0,0,0h0l0,0l0,0h0l0,0l0,0h0c0,0,0,0,0,0c0.1,11.7,1.9,23.1,5.3,34.1c3.7,11.9,9.3,23.2,16.7,33.5c0.2,0.3,0.4,0.6,0.6,0.9c0.6,0.9,1.3,1.7,1.9,2.6c0,0,0,0,0,0c3.9,5.1,8.2,9.8,12.9,14.2l10,9.4l0.1-1c20.2,15,44.9,23.4,70.4,23.4c25.6,0,50.3-8.4,70.4-23.4l0.1,1l10-9.4c4.7-4.4,9-9.1,12.9-14.2c0,0,0,0,0,0c0.7-0.8,1.3-1.7,1.9-2.6c0.2-0.3,0.4-0.6,0.7-0.9c7.4-10.3,13-21.6,16.7-33.5c3.4-10.9,5.2-22.3,5.3-34.1c0,0,0,0,0,0h0c0,0,0,0,0,0s0,0,0,0s0,0,0,0c0,0,0,0,0,0h0l0,0c0,0,0,0,0,0l0,0h0l0,0c0,0,0,0,0,0v0l0,0v0v0v0v0c0,0,0,0,0,0v0c0,0,0,0,0,0v0v0v0l0,0v0c0,0,0,0,0,0s0,0,0,0s0,0,0,0l0,0v0v0v0v0l0,0v0c0,0,0,0,0,0s0,0,0,0l0,0c0,0,0,0,0,0c0,0,0,0,0,0v0c0,0,0,0,0,0C246,62.9,193.1,10,128,10z M128,232.2c-25.3,0-49.6-9.3-68.4-25.7c5.6-33.1,34.4-57.6,68.4-57.6s62.8,24.5,68.4,57.6C177.6,222.8,153.3,232.2,128,232.2z M93.3,100.3c0-19.1,15.6-34.7,34.7-34.7c19.1,0,34.7,15.6,34.7,34.7c0,19.1-15.6,34.7-34.7,34.7C108.9,135,93.3,119.4,93.3,100.3z M232.2,128.9L232.2,128.9c-0.1,10.2-1.6,20.2-4.6,29.8c-3.3,10.9-8.5,21.2-15.4,30.7c-0.2,0.3-0.4,0.6-0.7,0.9l0,0c0,0,0,0,0,0.1c0,0,0,0,0,0s0,0,0,0c0,0,0,0,0,0l0,0l0,0c0,0,0,0,0,0c0,0,0,0,0,0c0,0,0,0,0,0s0,0,0,0c0,0,0,0,0,0l0,0c0,0,0,0,0,0c0,0,0,0,0,0c0,0,0,0,0,0c0,0,0,0,0,0l0,0c0,0,0,0,0,0.1l0,0c-1,1.3-2,2.6-3.1,3.9c-7.5-25.7-27.1-46-51.9-54.8c12.4-8.8,20.5-23.3,20.5-39.6c0-26.8-21.8-48.6-48.6-48.6c-26.8,0-48.6,21.8-48.6,48.6c0,16.4,8.1,30.8,20.5,39.6c-24.8,8.9-44.3,29.1-51.9,54.9c-1.1-1.3-2.1-2.6-3.1-3.9l0,0c0,0,0,0,0-0.1l0,0c0,0,0,0,0,0s0,0,0,0c0,0,0,0,0,0l0,0c0,0,0,0,0,0c0,0,0,0,0,0c0,0,0,0,0,0c0,0,0,0,0,0c0,0,0,0,0,0c0,0,0,0,0,0l0,0c0,0,0,0,0,0c0,0,0,0,0,0c0,0,0,0,0,0c0,0,0,0,0,0c0,0,0,0,0-0.1l0,0c-0.2-0.3-0.4-0.6-0.7-0.9c-6.9-9.4-12-19.8-15.4-30.7c-2.9-9.5-4.5-19.6-4.6-29.8h0c0,0,0,0,0,0s0,0,0,0c0,0,0,0,0,0s0,0,0,0v0v0c0,0,0,0,0,0v0v0c0,0,0,0,0,0c0,0,0,0,0,0v0v0v0v0h0l0,0v0v0v0v0v0v0c0,0,0,0,0,0v0c0,0,0,0,0,0c0,0,0,0,0,0v0v0c0,0,0,0,0,0l0,0v0c0,0,0,0,0,0l0,0c0,0,0,0,0,0l0,0l0,0c0,0,0,0,0,0C23.8,70.6,70.6,23.8,128,23.8c57.4,0,104.1,46.7,104.1,104.1c0,0,0,0,0,0c0,0,0,0,0,0l0,0v0c0,0,0,0,0,0l0,0v0l0,0v0l0,0v0l0,0c0,0,0,0,0,0v0c0,0,0,0,0,0s0,0,0,0c0,0,0,0,0,0c0,0,0,0,0,0l0,0l0,0v0v0v0v0v0v0v0l0,0v0v0v0v0v0c0,0,0,0,0,0s0,0,0,0v0l0,0v0l0,0c0,0,0,0,0,0c0,0,0,0,0,0S232.1,128.7,232.2,128.9C232.1,128.8,232.1,128.8,232.2,128.9C232.1,128.8,232.1,128.8,232.2,128.9C232.1,128.8,232.1,128.8,232.2,128.9L232.2,128.9C232.1,128.9,232.1,128.9,232.2,128.9L232.2,128.9C232.2,128.8,232.2,128.8,232.2,128.9L232.2,128.9z"/></g></g>
</svg>